<svg width="174" height="74" viewBox="0 0 174 74" fill="none" xmlns="http://www.w3.org/2000/svg">
<rect width="173.691" height="73.0477" rx="36.5239" fill="#F9F9F9"/>
<path d="M70.1234 18.057C72.0315 18.057 73.5124 18.4557 74.623 19.2531C75.7052 20.0504 76.2463 21.275 76.2748 22.8983C76.2748 23.6957 76.1039 24.4931 75.7337 25.205C75.4204 25.86 74.8793 26.4011 74.2243 26.7144V26.8283C74.9648 27.17 75.5913 27.7111 76.047 28.4231C76.3317 28.8503 76.5311 29.3059 76.6735 29.7901C76.8444 30.3596 76.9298 30.9861 76.9013 31.5842C76.9298 32.4955 76.7304 33.3783 76.3602 34.1757C76.0185 34.9162 75.4774 35.5427 74.8509 36.0268C74.1959 36.5394 73.4554 36.9097 72.658 37.1375C71.8322 37.3938 70.9493 37.5077 70.095 37.5077H59.6719V18H70.1234V18.057ZM64.6841 25.2335H69.2691C69.8387 25.2905 70.3798 25.1196 70.8069 24.7494C71.0917 24.4361 71.2626 24.0089 71.2341 23.5818C71.2341 23.1831 71.0917 22.7844 70.8069 22.4711C70.3798 22.1009 69.8102 21.93 69.2691 21.987H64.6841V25.2335ZM64.6841 33.6062H69.3261C70.038 33.6631 70.75 33.4638 71.2911 33.0081C71.6898 32.5809 71.8891 32.0398 71.8606 31.4418C71.9176 30.7868 71.6613 30.1603 71.1771 29.7331C70.6361 29.3344 69.9811 29.1351 69.3261 29.1635H64.6841V33.6062Z" fill="#010202"/>
<path d="M81.6573 37.5652H76.3604L83.2521 18.0859H88.3782L95.4409 37.5652H89.8591L88.9193 34.1762H82.6256L81.6573 37.5652ZM85.7867 23.1836H85.6728L83.6508 30.4171H87.7802L85.7867 23.1836Z" fill="#010202"/>
<path d="M101.308 26.0286H101.194V37.5624H96.1816V18.0547H101.735L108.37 28.9334H108.484V18.0547H113.497V37.5624H108.456L101.308 26.0286Z" fill="#010202"/>
<path d="M120.473 18.0547V24.8895L126.881 18.0547H133.488L125.628 25.4876L133.944 37.5624H127.65L121.897 28.905L120.445 30.3004V37.5624H115.433V18.0547H120.473Z" fill="#010202"/>
<path d="M48.5365 40.5547V43.8297H45.1191V55.3065H41.5024V43.8297H38.085V40.5547H48.5365Z" fill="#010202"/>
<path d="M57.2231 40.5547C57.7357 40.5547 58.2768 40.6686 58.7324 40.868C59.1881 41.0673 59.6152 41.3806 59.9285 41.7793C60.2702 42.178 60.5265 42.6336 60.6974 43.1462C60.8968 43.6873 60.9822 44.2569 60.9822 44.8264C61.0107 45.6808 60.7829 46.5067 60.3557 47.2471C59.9285 47.9306 59.3305 48.4432 58.6185 48.7849L61.2955 55.3065H57.4509L55.2296 49.2976H52.3248V55.3065H48.708V40.5547H57.2231ZM56.1409 46.2219C56.4826 46.2504 56.8244 46.108 57.0237 45.8232C57.2231 45.5669 57.3085 45.2536 57.3085 44.9404C57.3085 44.798 57.28 44.6271 57.2515 44.4847C57.223 44.3423 57.1376 44.1999 57.0522 44.0575C56.9667 43.9436 56.8244 43.8297 56.682 43.7443C56.5111 43.6588 56.3402 43.6019 56.1409 43.6304H52.3532V46.2219H56.1409Z" fill="#010202"/>
<path d="M64.1716 55.3065H60.3555L65.3107 40.5547H69.0129L74.0821 55.3065H70.0666L69.3831 52.7434H64.8551L64.1716 55.3065ZM67.1618 44.4278H67.1048L65.6524 49.8956H68.6142L67.1618 44.4278Z" fill="#010202"/>
<path d="M77.7842 46.5921H77.6988V55.3065H74.082V40.5547H78.069L82.8534 48.7849H82.9388V40.5547H86.5556V55.3065H82.9103L77.7842 46.5921Z" fill="#010202"/>
<path d="M92.7357 55.677C91.9383 55.7055 91.1409 55.5915 90.372 55.3637C89.7455 55.1644 89.1759 54.8796 88.6633 54.5094C88.2076 54.1391 87.8089 53.712 87.5241 53.1709C87.2394 52.6298 87.0115 52.0602 86.8691 51.4906L90.315 50.0952C90.3435 50.8356 90.6283 51.5191 91.1409 52.0317C91.682 52.4874 92.3655 52.7152 93.049 52.6867C93.2483 52.6867 93.4477 52.6583 93.647 52.6298C93.8464 52.6013 94.0172 52.5444 94.1881 52.4304C94.359 52.345 94.4729 52.2026 94.5868 52.0317C94.7007 51.8609 94.7577 51.633 94.7577 51.4337C94.7577 51.2343 94.7292 51.035 94.6722 50.8356C94.5868 50.6363 94.4729 50.4654 94.3305 50.3515C94.1311 50.1806 93.9033 50.0382 93.647 49.9243C93.2768 49.7535 92.9066 49.6396 92.5363 49.5256C91.7389 49.2978 90.97 49.013 90.2296 48.6998C89.6316 48.4435 89.0905 48.1017 88.5778 47.6745C88.1507 47.3043 87.8089 46.8487 87.5811 46.3361C87.3533 45.7665 87.2394 45.1684 87.2394 44.5704C87.2394 43.9154 87.3818 43.2604 87.6665 42.6908C87.9513 42.1497 88.35 41.6656 88.8626 41.2954C89.4037 40.8967 90.0018 40.6119 90.6568 40.441C91.3972 40.2417 92.1661 40.1562 92.935 40.1562C93.6185 40.1562 94.3305 40.2132 94.9855 40.3841C95.5266 40.5265 96.0392 40.7543 96.4948 41.0676C96.922 41.3523 97.2922 41.7226 97.577 42.1497C97.8903 42.6339 98.1181 43.118 98.3175 43.6591L95.2133 45.0261C95.0994 44.4565 94.8146 43.9439 94.4159 43.5452C93.5616 42.9756 92.4794 42.9471 91.5966 43.4597C91.3403 43.6591 91.1979 43.9439 91.1694 44.2571C91.1694 44.4565 91.1979 44.6274 91.2833 44.7982C91.3687 44.9691 91.5111 45.14 91.682 45.2539C91.9098 45.4248 92.1661 45.5671 92.4509 45.6526C92.8781 45.8234 93.2768 45.9374 93.704 46.0513C94.3874 46.2506 95.0709 46.45 95.669 46.6493C96.2385 46.8487 96.7796 47.1335 97.2638 47.5037C97.7194 47.8739 98.0896 48.3295 98.3459 48.8422C98.6307 49.4972 98.7731 50.2376 98.7446 50.9496C98.7731 51.6615 98.6022 52.345 98.289 53C97.9757 53.5696 97.5485 54.0822 97.0075 54.4524C96.4379 54.8511 95.7829 55.1644 95.0994 55.3352C94.302 55.5915 93.5046 55.7055 92.7357 55.677Z" fill="#010202"/>
<path d="M102.618 46.0225H108.228V49.2976H102.618V55.3065H99.001V40.5547H109.937V43.8297H102.618V46.0225Z" fill="#010202"/>
<path d="M110.222 40.5547H121.157V43.8297H113.838V45.8232H120.246V49.0982H113.838V52.06H121.357V55.335H110.222V40.5547Z" fill="#010202"/>
<path d="M130.127 40.5547C130.64 40.5547 131.181 40.6686 131.637 40.868C132.092 41.0673 132.52 41.3806 132.833 41.7793C133.175 42.178 133.431 42.6336 133.602 43.1462C133.801 43.6873 133.886 44.2569 133.886 44.8264C133.915 45.6808 133.687 46.5067 133.26 47.2471C132.833 47.9306 132.235 48.4432 131.523 48.7849L134.2 55.3065H130.355L128.134 49.2976H125.229V55.3065H121.612V40.5547H130.127ZM129.045 46.2219C129.387 46.2504 129.729 46.108 129.928 45.8232C130.127 45.5669 130.213 45.2536 130.213 44.9404C130.213 44.798 130.184 44.6271 130.156 44.4847C130.127 44.3423 130.042 44.1999 129.956 44.0575C129.871 43.9436 129.729 43.8297 129.586 43.7443C129.415 43.6588 129.245 43.6019 129.045 43.6304H125.258V46.2219H129.045Z" fill="#010202"/>
<path d="M57.7355 18.0547H38V22.0132H57.7355V18.0547Z" fill="#010202"/>
<path d="M57.7355 25.4883H38V29.4468H57.7355V25.4883Z" fill="#010202"/>
<path d="M57.7355 33.6328H38V37.5913H57.7355V33.6328Z" fill="#010202"/>
</svg>
